<?xml version="1.0" encoding="UTF-8" standalone="no"?>
<!-- Created with Inkscape (http://www.inkscape.org/) -->

<svg
   xmlns:dc="http://purl.org/dc/elements/1.1/"
   xmlns:cc="http://creativecommons.org/ns#"
   xmlns:rdf="http://www.w3.org/1999/02/22-rdf-syntax-ns#"
   xmlns:svg="http://www.w3.org/2000/svg"
   xmlns="http://www.w3.org/2000/svg"
   xmlns:sodipodi="http://sodipodi.sourceforge.net/DTD/sodipodi-0.dtd"
   xmlns:inkscape="http://www.inkscape.org/namespaces/inkscape"
   width="210mm"
   height="297mm"
   viewBox="0 0 210 297"
   version="1.1"
   id="svg999"
   inkscape:version="0.92.2 (5c3e80d, 2017-08-06)"
   sodipodi:docname="logo.svg">
  <defs
     id="defs993" />
  <sodipodi:namedview
     id="base"
     pagecolor="#ffffff"
     bordercolor="#666666"
     borderopacity="1.0"
     inkscape:pageopacity="0.0"
     inkscape:pageshadow="2"
     inkscape:zoom="0.35"
     inkscape:cx="400"
     inkscape:cy="643.20028"
     inkscape:document-units="mm"
     inkscape:current-layer="layer1"
     showgrid="false"
     inkscape:window-width="1366"
     inkscape:window-height="705"
     inkscape:window-x="-8"
     inkscape:window-y="-8"
     inkscape:window-maximized="1" />
  <metadata
     id="metadata996">
    <rdf:RDF>
      <cc:Work
         rdf:about="">
        <dc:format>image/svg+xml</dc:format>
        <dc:type
           rdf:resource="http://purl.org/dc/dcmitype/StillImage" />
        <dc:title></dc:title>
      </cc:Work>
    </rdf:RDF>
  </metadata>
  <g
     inkscape:label="Capa 1"
     inkscape:groupmode="layer"
     id="layer1">
    <path
       style="fill:#0000ff;stroke-width:0.26458332"
       id="path1001"
       d="m 22.415394,79.320357 c 0.306539,-0.15372 0.620626,-0.29323 0.919617,-0.461161 0.862325,-0.48433 3.424214,-1.981316 2.569133,-1.484309 -15.054511,8.750273 -8.09995,4.788704 -4.890903,2.570281 3.388345,-2.447695 6.390753,-5.355645 9.123189,-8.506388 2.806044,-3.505536 5.445038,-7.154725 7.98439,-10.858498 1.73978,-2.416992 3.379896,-4.902858 5.14927,-7.298835 1.381972,-2.231919 2.82053,-4.424762 4.281575,-6.605431 2.771725,-4.00176 7.473638,-9.984663 12.760711,-8.644713 1.684713,1.735463 0.786844,4.214678 0.272108,6.290149 -1.110681,3.645926 -2.426978,7.222175 -3.631623,10.835973 -1.828673,5.590849 -3.641998,11.187424 -5.342623,16.818726 -1.877078,6.583175 -4.002481,13.091451 -5.952103,19.652909 -1.822337,6.346258 -3.677029,12.68163 -5.426771,19.04835 0,0 -9.756873,4.635 -9.756873,4.635 v 0 c 1.877036,-6.36769 3.750953,-12.73687 5.562708,-19.123511 1.915703,-6.559716 4.035785,-13.058245 5.900399,-19.633014 1.657152,-5.605304 3.409429,-11.180887 5.168297,-16.754808 1.073742,-3.598947 2.398154,-7.12197 3.504253,-10.713747 0.312576,-1.139121 0.80737,-2.942799 0.8133,-4.13862 0.0029,-0.593087 -0.09615,-0.344144 -0.162719,-0.218342 -2.913711,2.513888 -0.05148,0.01934 8.822116,-5.161174 0.206774,-0.120716 -0.404884,0.259564 -0.583086,0.419475 -0.719418,0.645571 -1.116738,1.539777 -1.77985,2.234928 -1.444628,2.204447 -3.05684,4.312462 -4.254174,6.669966 -1.850763,2.382136 -3.504803,4.903163 -5.315842,7.312861 -2.547173,3.732794 -5.241745,7.374696 -7.973301,10.971646 -2.643976,3.243747 -5.627896,6.186932 -8.954719,8.735049 -5.484677,4.042124 -11.553477,7.237884 -17.597509,10.354924 0,0 8.79103,-6.947686 8.79103,-6.947686 z"
       inkscape:connector-curvature="0" />
    <path
       style="fill:#0000ff;stroke-width:0.26458332"
       id="path1003"
       d="m 63.992775,43.034643 c 2.567548,-1.230167 5.255144,-2.200381 7.931666,-3.167603 2.692294,-1.018608 5.454163,-1.816978 8.301884,-2.240311 2.385986,-0.361593 3.575756,-0.2691 5.572879,1.149818 2.094878,1.765475 3.204318,4.227846 4.373467,6.629453 0.993598,2.223836 1.571488,4.606607 1.47697,7.041314 -0.294139,2.762612 -1.744874,5.189373 -3.255364,7.456543 -1.732288,2.436743 -3.651806,4.723558 -5.623769,6.966714 -4.690996,4.68317 -10.895282,7.387249 -16.600241,10.622973 -1.889295,0.85511 -3.659214,1.98691 -5.671328,2.533814 -3.932108,1.701599 -7.540905,5.322856 7.850944,-4.69783 0.158568,-0.103235 -0.199297,-0.328695 -0.243864,-0.512583 -0.02869,-0.118382 0.02093,-0.242718 0.03141,-0.364077 1.693162,-0.743035 3.483703,-1.192977 5.22799,-1.785361 2.104612,-0.638381 4.161972,-1.365427 6.33663,-1.735627 1.945889,-0.228235 3.90734,-0.227279 5.863463,-0.22706 2.301169,-0.108606 4.424815,0.571685 6.348264,1.781736 1.76702,1.140555 2.892613,2.848967 3.812808,4.691788 1.011372,1.964179 1.211003,4.111426 1.359151,6.275726 0.02387,3.21157 -1.41037,5.77847 -3.321648,8.243003 -5.361728,6.375464 -13.150032,9.626267 -20.294896,13.587177 -4.456337,1.9973 -9.166061,3.31193 -13.910694,4.4149 -2.374976,0.55791 -4.796541,0.81029 -7.230192,0.87319 -2.765784,0.005 -5.326157,-1.29506 -7.832198,-2.32824 -3.516675,-1.28591 -7.203612,-2.07821 -10.637808,-3.58216 -1.046478,-0.36734 -1.928077,-0.98484 -2.797596,-1.64967 0,0 9.43229,-5.969304 9.43229,-5.969304 v 0 c 0.808247,0.586108 1.634487,1.126863 2.572639,1.492409 3.416625,1.489115 7.064306,2.324025 10.563206,3.590085 2.478501,0.96046 4.993749,2.06877 7.715004,1.84909 2.332382,-0.10132 4.650518,-0.38478 6.927165,-0.9162 4.682487,-1.09983 9.31264,-2.46333 13.670494,-4.531651 -2.328484,1.401884 -4.677413,2.770361 -6.985452,4.205651 -0.693545,0.4313 1.441145,-0.77044 2.140283,-1.1926 0.674238,-0.40714 1.340374,-0.8303 1.977252,-1.2937 1.683266,-1.224768 3.225007,-2.670046 4.57744,-4.248905 1.923029,-2.165868 3.386458,-4.474959 3.570581,-7.438509 -0.115633,-2.008587 -0.276415,-4.02195 -1.182997,-5.856996 -0.849802,-1.649619 -1.81121,-3.203901 -3.464898,-4.163095 -1.864477,-1.024808 -3.883028,-1.40753 -6.011551,-1.28176 -1.925235,0.02994 -3.864356,0.04576 -5.762529,0.407363 -2.111698,0.462126 -4.144854,1.187219 -6.211724,1.812514 -1.83861,0.572702 -3.78334,1.570437 -5.727742,1.378842 -4.584623,-3.809156 6.496476,-6.04171 10.478765,-7.689601 1.870077,-0.729893 3.641889,-1.707452 5.426109,-2.620071 3.855844,-2.177664 2.696586,-1.529945 -6.849602,4.002529 -0.421868,0.244494 0.846786,-0.484259 1.25952,-0.743873 1.473472,-0.926838 0.957828,-0.634428 2.304116,-1.747729 0.361952,-0.299313 0.733782,-0.586475 1.100672,-0.879713 1.930656,-2.258938 3.964709,-4.426596 5.672701,-6.86956 1.539996,-2.045295 2.969239,-4.353414 3.455516,-6.89666 0.29794,-2.231914 -0.335166,-4.47456 -1.18645,-6.533354 -1.044464,-2.235192 -2.048724,-4.553159 -4.089871,-6.07699 -1.741873,-0.970806 -3.181633,-0.816803 -5.103688,-0.485232 -2.771661,0.498377 -5.46051,1.327888 -8.088555,2.337686 -2.723232,0.99998 -5.419649,2.075982 -8.037648,3.329392 0,0 8.79103,-6.947685 8.79103,-6.947685 z"
       inkscape:connector-curvature="0" />
    <path
       style="fill:#0000ff;stroke-width:0.26458332"
       id="path1005"
       d="m 101.70674,81.813558 c 0.70143,-2.144525 1.90054,-4.051628 3.36167,-5.752619 3.2651,-3.277626 7.72559,-4.967245 11.7559,-7.181228 0.82424,-0.452781 1.53747,-0.230383 2.27018,0.185362 1.50572,1.583187 1.40233,4.011604 1.49792,6.063403 0.0528,3.06518 0.007,6.130878 -0.005,9.196232 -0.001,3.001041 -0.008,6.00208 0.009,9.003106 0.12473,2.48331 -0.17934,4.945584 -0.41439,7.411616 -0.21628,1.81039 -0.5964,3.58031 -1.24575,5.28304 -0.10177,0.25989 -0.2083,0.51797 -0.30531,0.77968 -0.12997,0.35061 -0.42446,1.61636 -0.52848,1.66167 -10.47863,4.564 -11.71757,7.21704 -9.66093,3.38874 0.94049,-1.60332 1.60467,-3.28995 1.95616,-5.11136 0.26485,-1.68025 0.2838,-3.38436 0.2956,-5.0812 0.11837,-1.62357 -0.16355,-3.151737 -0.78863,-4.646916 -0.67435,-1.015688 -1.42167,-2.053135 -2.49904,-2.663682 -1.37255,-0.442378 -2.78045,-0.76454 -4.20924,-0.973458 -1.89663,-0.223848 -3.810599,-0.222974 -5.717615,-0.242271 -2.232779,-0.163898 -4.39188,0.249624 -6.546895,0.770666 -3.496799,1.602856 -8.824751,4.71638 7.159112,-4.196348 0.239305,-0.13344 -0.455782,0.306293 -0.664636,0.48364 -0.44296,0.37614 -0.63709,0.662826 -0.995836,1.111777 -0.907378,1.045559 -1.448811,2.309622 -2.07218,3.52584 -0.702104,1.087239 -1.239163,2.134711 -1.478179,3.413995 -0.179139,1.543892 -0.349639,3.113347 0.01389,4.637647 0.43348,1.51381 0.915588,2.46355 2.452841,2.97111 1.515989,0.77622 3.196826,0.95569 4.868908,1.07722 1.89935,0.0986 3.80232,0.0915 5.70363,0.0862 1.68053,-0.009 3.36107,-0.0173 5.04162,-0.0216 1.53048,0.1181 2.78039,-0.75584 4.07457,-1.43464 -17.248415,9.66843 -8.60216,6.08722 -6.10533,2.51302 0,0 10.22272,-4.54044 10.22272,-4.54044 v 0 c -2.38057,4.76176 -8.99263,6.65709 -12.85475,9.03159 -1.39088,0.6983 -2.80801,1.14053 -4.38657,1.00757 -1.67216,0.001 -3.344321,0.004 -5.016477,2.6e-4 -1.921516,-0.007 -3.846134,-5.2e-4 -5.762096,-0.16898 -1.766308,-0.19366 -3.497726,-0.5358 -5.094335,-1.35465 -1.592633,-0.82874 -2.505411,-2.0879 -2.969141,-3.83034 -0.489535,-1.65742 -0.391139,-3.33124 -0.229852,-5.04055 0.148133,-1.35473 0.323544,-2.68609 1.305134,-3.720025 0.609336,-1.282673 1.194983,-2.572647 1.990617,-3.757194 0.470082,-0.582406 0.901443,-1.543137 1.552911,-1.939049 3.738957,-2.27226 7.66127,-5.402874 12.098263,-6.594938 2.210216,-0.464074 4.440426,-0.684432 6.701826,-0.563161 1.95457,0.02186 3.92086,0.03768 5.85446,0.356392 1.53686,0.286866 3.137,0.574402 4.51603,1.339445 1.15569,0.869849 2.06806,2.000033 2.79026,3.251353 0.68039,1.613636 1.1572,3.270229 1.01196,5.039207 -0.009,1.754272 -0.0269,3.5131 -0.24392,5.25659 -0.27861,1.90269 -0.76308,3.72853 -1.78669,5.38348 -1.86788,4.27828 -0.095,0.63706 -10.86491,5.75835 -0.0824,0.0392 0.17882,-0.0702 0.23309,-0.14351 0.45689,-0.61751 0.41353,-1.47172 0.7897,-2.1287 0.68501,-1.62555 1.1836,-3.27353 1.43846,-5.02709 0.2534,-2.43853 0.60509,-4.87339 0.49926,-7.331992 0.0219,-3.011099 0.0244,-6.022245 0.0442,-9.033343 0.009,-3.037097 0.0213,-6.075117 -0.0522,-9.111509 -0.0444,-1.222217 0.0911,-4.032967 -0.92485,-4.858986 -0.47888,0.01881 -0.44595,-0.01344 -0.98123,0.186309 -0.24484,0.09136 -0.941,0.451855 -0.71668,0.317796 15.87058,-9.484643 10.35324,-6.382808 7.23794,-4.09825 -1.49717,1.521293 -2.77108,3.213396 -3.5005,5.245941 0,0 -10.12678,4.809734 -10.12678,4.809734 z"
       inkscape:connector-curvature="0" />
    <path
       style="fill:#0000ff;stroke-width:0.26458332"
       id="path1007"
       d="m 134.25671,68.395735 c -0.0883,2.631252 -0.0631,5.265439 -0.0442,7.897784 -5e-5,2.638179 -0.0193,5.276151 -0.007,7.914351 -0.003,2.386375 0.0192,4.772816 0.0183,7.159218 -0.01,2.223524 -0.005,4.447037 0.009,6.670537 0.0115,1.67904 0.0172,3.358115 0.0201,5.037185 0.002,1.51218 0.002,3.02437 0.002,4.53656 -3e-5,0.75407 -8e-5,1.50814 -1.2e-4,2.26222 0,0 -9.97231,5.08114 -9.97231,5.08114 v 0 c -4e-5,-0.75403 -8e-5,-1.50807 -1.1e-4,-2.2621 -2e-5,-1.5128 -1.8e-4,-3.0256 0.002,-4.5384 0.003,-1.6859 0.009,-3.3718 0.0201,-5.05766 0.0132,-2.22647 0.0184,-4.452957 0.009,-6.679449 -7.9e-4,-2.392627 0.0212,-4.785291 0.0183,-7.177889 0.0119,-2.635719 -0.007,-5.271204 -0.007,-7.906901 0.0186,-2.617298 0.045,-5.236535 -0.0443,-7.852698 0,0 9.97772,-5.083898 9.97772,-5.083898 z"
       inkscape:connector-curvature="0" />
    <path
       style="fill:#0000ff;stroke-width:0.26458332"
       id="path1009"
       d="m 127.64053,85.465636 c 2.06136,-1.443548 3.93724,-3.076435 5.61777,-4.947232 1.13089,-1.383686 2.16242,-2.855643 3.3821,-4.164074 3.48638,-2.867577 1.57992,-1.352158 10.7774,-6.192096 0.9748,-0.512966 1.83907,1.14685 2.14018,1.743744 0.55617,1.765885 0.54566,3.63683 0.57187,5.469467 0.0156,1.744676 0.009,3.489444 0.005,5.234157 0.003,1.604142 -0.0103,3.2082 -0.0163,4.812299 -0.007,2.083105 -0.024,4.166116 -0.0214,6.249263 0.0152,1.928344 0.0161,3.85663 0.0158,5.784995 0.004,1.696501 0.01,3.392991 0.0131,5.089491 0.001,0.76888 0.002,1.53776 0.002,2.30664 0,0 -9.97096,5.08045 -9.97096,5.08045 v 0 c 5.3e-4,-0.7697 10e-4,-1.5394 0.002,-2.3091 0.003,-1.70095 0.01,-3.40188 0.0131,-5.10282 -2.6e-4,-1.93369 5.3e-4,-3.86731 0.0156,-5.800983 0.002,-2.076185 -0.0151,-4.15223 -0.0208,-6.228376 -0.005,-1.603068 -0.0154,-3.206104 5.2e-4,-4.80918 0.0114,-1.744343 0.0334,-3.48864 0.0328,-5.233035 -0.0157,-1.666672 0.008,-3.365847 -0.39562,-4.993503 -0.0829,-0.171243 -0.18362,-0.527214 -0.43091,-0.591627 -0.2566,-0.06684 -0.98693,0.374153 -0.7587,0.239157 8.58159,-5.07592 12.22845,-6.663571 8.3994,-4.968517 -1.4635,1.037727 -2.41045,2.69214 -3.52966,4.067598 -1.61997,1.898192 -3.33898,3.716504 -5.45774,5.070615 0,0 -10.38736,4.192667 -10.38736,4.192667 z"
       inkscape:connector-curvature="0" />
    <path
       style="fill:#0000ff;stroke-width:0.26458332"
       id="path1011"
       d="m 146.39034,81.794873 c 1.26627,-1.726988 2.63271,-3.374353 3.91106,-5.092703 3.25184,-4.486261 7.00845,-5.252651 12.65082,-8.523941 -21.44507,12.364852 -1.94005,1.10126 1.15127,-0.605313 3.04731,-1.682285 -6.03483,3.47074 -9.05969,5.19308 -0.18314,0.10428 0.35104,-0.233881 0.53395,-0.338561 10.28621,-5.886844 6.28997,-5.514941 10.77278,-5.836298 1.52497,0.52455 1.69479,2.376993 1.84522,3.764484 0.1168,1.598953 0.1057,3.204215 0.0863,4.80628 -0.025,1.899057 -0.025,3.798184 -0.0206,5.697363 0.005,1.608656 0.008,3.217315 0.009,4.825979 0.007,1.58556 -0.004,3.171039 -0.01,4.75656 0.006,1.789033 -0.006,3.578 -0.003,5.367025 -0.004,1.841368 -0.002,3.682709 0.004,5.524092 0.006,1.58776 0.008,3.17554 0.009,4.76332 0.01,0.93354 -0.0201,1.86299 -0.0794,2.79428 0,0 -9.99269,4.96839 -9.99269,4.96839 v 0 c 0.12319,-0.89685 0.14625,-1.77653 0.10141,-2.68233 0.001,-1.591 0.004,-3.18199 0.009,-4.77298 0.006,-1.84274 0.008,-3.68545 0.004,-5.52818 0.002,-1.787844 -0.009,-3.575631 -0.003,-5.363481 -0.005,-1.582214 -0.0174,-3.164382 -0.01,-4.746636 0.002,-1.613132 0.005,-3.226265 0.0135,-4.839377 0.01,-1.898824 0.0189,-3.797615 0.0125,-5.69646 -0.006,-1.565868 0.0276,-3.133202 -0.0551,-4.697672 -0.0497,-0.613418 0.004,-1.697212 -0.42325,-2.212068 -0.0925,-0.11135 -0.42752,0.190223 -0.42316,0.09728 -3.55818,1.763929 -0.49977,0.259371 8.61703,-5.027713 0.18138,-0.105188 -0.36528,0.206004 -0.54669,0.311147 -3.38066,1.959412 -6.77715,3.891844 -10.1395,5.882505 -0.37442,0.221668 26.39511,-15.277846 -1.13272,0.648735 3.02273,-1.758202 6.04545,-3.516403 9.06818,-5.274604 -0.5509,0.378682 -1.18708,0.57739 -1.68831,1.027419 -0.47417,0.425731 -0.69018,0.803617 -1.05827,1.328225 -1.34336,1.633526 -2.65253,3.318324 -3.83067,5.071488 0,0 -10.32367,4.410665 -10.32367,4.410665 z"
       inkscape:connector-curvature="0" />
    <path
       style="fill:#0000ff;stroke-width:0.26458332"
       id="path1013"
       d="m 189.44124,66.883829 c -0.10513,3.252687 -0.0829,6.508081 -0.10754,9.762062 -0.0282,4.282987 -0.024,8.566083 -0.009,12.849108 0.0214,3.318193 0.0548,6.636203 0.0422,9.954501 -0.009,3.19831 0.007,6.39664 -0.006,9.59494 0.033,3.60611 -0.69614,7.08809 -1.58382,10.55719 -0.79449,3.55988 -2.47778,6.76735 -4.38628,9.83883 -1.81677,3.09227 -4.0847,5.80295 -6.76199,8.17395 -4.45878,3.80265 -9.64246,6.23689 -14.8917,8.95589 -0.062,0.0321 -2.79215,0.76176 -2.87775,0.78476 -3.1328,1.14819 -6.41115,1.63213 -9.6738,2.22882 -3.84152,0.70397 -7.69916,1.19672 -11.595,1.46414 -5.50893,0.10609 -10.94701,-0.95795 -16.3964,-1.62664 -8.3763,-1.1647 -16.7862,-1.95154 -25.229349,-2.39883 -8.806659,-0.38643 -17.62778,-0.0565 -26.435672,0.15397 -7.045743,0.19194 -14.093626,0.24418 -21.141613,0.23732 -7.864292,-0.34565 -15.764055,-0.53236 -23.585204,-1.47878 -3.089359,-0.5754 -5.708938,-0.94338 -6.986827,-4.08327 -0.474437,-1.61435 0.03018,-3.25192 0.297698,-4.85785 0.286662,-2.00544 0.31568,-4.03426 0.354756,-6.05597 0.02063,-1.91715 0.02732,-3.83422 0.01721,-5.75144 0,0 9.908027,-5.04914 9.908027,-5.04914 v 0 c -0.0078,1.92159 0.0051,3.84314 -0.0096,5.76468 -0.01426,2.05506 -0.03258,4.11569 -0.245282,6.16156 -0.173741,1.45051 -0.690623,2.90294 -0.539925,4.3569 0.80431,2.48803 3.767424,2.82679 5.992347,3.30068 7.7426,1.07117 15.587258,1.30386 23.393881,1.44228 7.01851,-0.0514 14.037215,-0.0915 21.055203,-0.19597 8.817904,-0.13584 17.647031,-0.48914 26.46122,-0.0748 8.48831,0.493 16.93739,1.35168 25.3781,2.37225 5.48347,0.6133 10.97574,1.57379 16.5117,1.28756 3.88936,-0.31983 7.74038,-0.87892 11.57746,-1.59141 3.27168,-0.57769 6.49899,-1.27937 9.65314,-2.34384 4.6615,-1.35041 6.46325,-3.19339 -5.2632,3.9156 -0.44069,0.26717 0.91864,-0.47036 1.35488,-0.74474 0.96305,-0.60574 1.82716,-1.33835 2.71353,-2.04606 2.7531,-2.22973 5.11215,-4.82105 6.92458,-7.88429 1.92957,-2.95067 3.66567,-6.05823 4.51144,-9.50958 0.84582,-3.39481 1.75617,-6.76098 1.67995,-10.30106 -0.0129,-3.19639 0.003,-6.39281 -0.006,-9.58922 -0.0127,-3.33263 0.0211,-6.664976 0.0422,-9.997504 0.0151,-4.280045 0.0196,-8.560162 -0.009,-12.840168 -0.0246,-3.217447 -0.002,-6.436378 -0.10754,-9.652479 0,0 9.97772,-5.0839 9.97772,-5.0839 z"
       inkscape:connector-curvature="0" />
    <path
       style="fill:#0000ff;stroke-width:0.26458332"
       id="path1015"
       d="m 190.20504,48.646548 c -0.0688,2.115462 -0.0422,4.232759 -0.0304,6.348949 0.0106,1.663224 0.0157,3.326474 0.0183,4.98973 0,0 -9.96924,5.079579 -9.96924,5.079579 v 0 c 0.003,-1.669463 0.008,-3.33892 0.0183,-5.008354 0.0117,-2.105863 0.039,-4.212891 -0.0304,-6.318003 0,0 9.99342,-5.091901 9.99342,-5.091901 z"
       inkscape:connector-curvature="0" />
    <path
       style="fill:#0000ff;stroke-width:0.26458332"
       id="path1017"
       d="m 108.97892,75.022452 c -2.10158,-0.04592 -4.204,-0.02773 -6.30591,-0.02003 -1.67187,0.007 -3.34375,0.01035 -5.015634,0.01207 -1.5128,0.0011 -3.025605,0.0011 -4.538408,0.0011 -1.495306,0.06406 -3.015784,-0.152234 -4.488463,0.143682 -0.20147,0.101753 -0.402942,0.203507 -0.604412,0.305263 0,0 8.852932,-6.865274 8.852932,-6.865274 v 0 c 0.242046,-0.04174 0.484092,-0.08349 0.726141,-0.125229 1.521709,-0.07089 3.045634,-0.02397 4.568634,-0.03717 1.51182,-1.4e-5 3.02364,-1.14e-4 4.53545,0.0011 1.66082,0.0016 3.32164,0.005 4.98245,0.01206 2.1203,0.0078 4.24107,0.02524 6.36105,-0.02003 0,0 -9.07383,6.592527 -9.07383,6.592527 z"
       inkscape:connector-curvature="0" />
    <text
       xml:space="preserve"
       style="font-style:normal;font-weight:normal;font-size:10.58333302px;line-height:1.25;font-family:sans-serif;letter-spacing:0px;word-spacing:0px;fill:#000000;fill-opacity:1;stroke:none;stroke-width:0.26458332"
       x="52.160713"
       y="123.8869"
       id="text1021"><tspan
         sodipodi:role="line"
         id="tspan1019"
         x="52.160713"
         y="123.8869"
         style="stroke-width:0.26458332">Desarrollos  WEB</tspan></text>
  </g>
</svg>
